<svg width="24" height="25" viewBox="0 0 24 25" fill="none" xmlns="http://www.w3.org/2000/svg">
<path d="M21.0001 3.12671L14.5001 21.1267C14.4562 21.2225 14.3858 21.3036 14.2971 21.3605C14.2085 21.4173 14.1054 21.4476 14.0001 21.4476C13.8948 21.4476 13.7917 21.4173 13.703 21.3605C13.6144 21.3036 13.5439 21.2225 13.5001 21.1267L10.0001 14.1267L3.00007 10.6267C2.90433 10.5828 2.8232 10.5124 2.76632 10.4238C2.70944 10.3351 2.6792 10.232 2.6792 10.1267C2.6792 10.0214 2.70944 9.91829 2.76632 9.82966C2.8232 9.74102 2.90433 9.67058 3.00007 9.62671L21.0001 3.12671Z" stroke="#36B368" stroke-width="2" stroke-linecap="round" stroke-linejoin="round"/>
</svg>
